<svg xmlns="http://www.w3.org/2000/svg" style="display: none;">
  <symbol id="icon--small" viewBox="0 0 24 24">
    <g fill-rule="evenodd" stroke-width="0">
      <path d="M6,3.99079514 C6,2.89130934 6.90195036,2 8.0085302,2 L15.9914698,2 C17.1007504,2 18,2.89821238 18,3.99079514 L18,20.0092049 C18,21.1086907 17.0980496,22 15.9914698,22 L8.0085302,22 C6.8992496,22 6,21.1017876 6,20.0092049 L6,3.99079514 Z M7,4.85714286 L17,4.85714286 L17,19.1428571 L7,19.1428571 L7,4.85714286 Z"></path>
    </g>
  </symbol>

  <symbol id="icon--medium" viewBox="0 0 24 24">
    <g fill-rule="evenodd" stroke-width="0">
      <path d="M4,3.99079514 C4,2.89130934 4.89451376,2 5.99406028,2 L18.0059397,2 C19.1072288,2 20,2.89821238 20,3.99079514 L20,20.0092049 C20,21.1086907 19.1054862,22 18.0059397,22 L5.99406028,22 C4.8927712,22 4,21.1017876 4,20.0092049 L4,3.99079514 Z M5.81666667,5.85526316 L18.1833333,5.85526316 L18.1833333,18.1447368 L5.81666667,18.1447368 L5.81666667,5.85526316 Z"></path>
    </g>
  </symbol>

  <symbol id="icon--large" viewBox="0 0 24 24">
    <g fill-rule="evenodd" transform="translate(-1.000000, 2.000000)" stroke-width="0">
      <path d="M1,2.23743875 C1,1.13300857 1.89702623,0.237691002 3.00494659,0.237691002 L22.9950534,0.237691002 C24.1023548,0.237691002 25,1.13184161 25,2.23743875 L25,14.0274169 C25,15.1318471 24.1029738,16.0271647 22.9950534,16.0271647 L3.00494659,16.0271647 C1.89764516,16.0271647 1,15.1330141 1,14.0274169 L1,2.23743875 Z M3,3.00247329 C3,2.44882258 3.45530558,2 3.99180311,2 L22.0081969,2 C22.5559546,2 23,2.45576096 23,3.00247329 L23,12.9975267 C23,13.5511774 22.5446944,14 22.0081969,14 L3.99180311,14 C3.44404538,14 3,13.544239 3,12.9975267 L3,3.00247329 Z"></path>
      <path d="M7.91567568,18.9473684 C8.27128383,18.0676681 8.97945946,14.7368421 8.97945946,14.7368421 L16.4259459,14.7368421 C16.4259459,14.7368421 16.9944086,17.7220474 17.4897297,18.9473684 C17.7035978,19.4764333 17.7880593,19.3809366 17.7880593,19.3809366 C18.210808,19.7228359 18.109085,20 17.5558398,20 L7.84956557,20 C7.29856561,20 7.25119089,19.8016913 7.64361042,19.4267911 C7.64361042,19.4267911 7.56209464,19.8220541 7.91567568,18.9473684 Z"></path>
    </g>
  </symbol>

  <symbol id="icon--full" viewBox="0 0 24 24">
    <g stroke-width="2" stroke-linecap="round" transform="translate(3.000000, 3.000000)" fill="none">
      <path d="M0.904761905,17.1000002 L17.8484848,0.551612906"></path>
      <path d="M7.34937611,17.8411765 L0,17.8411765 L0,10.8"></path>
      <path d="M18.206519,7.04117647 L10.8571429,7.04117647 L10.8571429,0" transform="translate(14.531831, 3.520588) scale(-1, -1) translate(-14.531831, -3.520588) "></path>
    </g>
  </symbol>

  <symbol id="icon--github" viewBox="0 0 36 36">
    <g stroke="none" fill-rule="evenodd">
      <path d="M0,19.6892308 C0,22.6430769 0.45,25 1.35,26.76 C2.3125,28.6307692 3.80625,30.0153846 5.83125,30.9138462 C7.88125,31.8615385 9.975,32.4461538 12.1125,32.6676923 C14.0375,32.8892308 16.1125,33 18.3375,33 C19.3,33 20.50625,32.9630769 21.95625,32.8892308 C23.16875,32.8153846 24.459375,32.6523077 25.828125,32.4 C27.196875,32.1476923 28.375,31.8184615 29.3625,31.4123077 C30.4875,30.9446154 31.525,30.3138462 32.475,29.52 C33.425,28.7261538 34.1625,27.8061538 34.6875,26.76 C35.5625,25 36,22.6430769 36,19.6892308 C36,16.3169231 35.01875,13.4984615 33.05625,11.2338462 C33.44375,10.0892308 33.6375,8.88923077 33.6375,7.63384615 C33.6375,5.97230769 33.275,4.42769231 32.55,3 C31.0625,3 29.734375,3.25846154 28.565625,3.77538462 C27.396875,4.29230769 26.0125,5.16615385 24.4125,6.39692308 C22.45,5.94153846 20.425,5.71384615 18.3375,5.71384615 C16.0625,5.71384615 13.8375,5.96 11.6625,6.45230769 C10.025,5.18461538 8.621875,4.29230769 7.453125,3.77538462 C6.284375,3.25846154 4.95625,3 3.46875,3 C2.73125,4.41538462 2.3625,5.96 2.3625,7.63384615 C2.3625,8.90153846 2.55625,10.1138462 2.94375,11.2707692 C0.98125,13.5353846 9.2821925e-15,16.3415385 9.2821925e-15,19.6892308 L0,19.6892308 Z M4.8375,23.4369231 C4.8375,21.6892308 5.346875,20.2307692 6.365625,19.0615385 C7.384375,17.8923077 8.725,17.3076923 10.3875,17.3076923 C11.05,17.3076923 12.45625,17.4615385 14.60625,17.7692308 C15.70625,17.9292308 16.8375,18.0092308 18,18.0092308 C19.1625,18.0092308 20.3,17.9292308 21.4125,17.7692308 C23.6,17.4615385 25.00625,17.3076923 25.63125,17.3076923 C27.29375,17.3076923 28.63125,17.8923077 29.64375,19.0615385 C30.65625,20.2307692 31.1625,21.6892308 31.1625,23.4369231 C31.1625,24.68 30.93125,25.7753846 30.46875,26.7230769 C30.00625,27.6338462 29.428125,28.3569231 28.734375,28.8923077 C28.040625,29.4276923 27.15625,29.8553846 26.08125,30.1753846 C24.30625,30.7046154 22.21875,30.9692308 19.81875,30.9692308 L16.18125,30.9692308 C14.99375,30.9692308 13.91875,30.9138462 12.95625,30.8030769 C11.93125,30.7046154 10.9,30.4892308 9.8625,30.1569231 C8.825,29.8246154 7.96875,29.4061538 7.29375,28.9015385 C6.55625,28.3353846 5.9625,27.5815385 5.5125,26.64 C5.0625,25.6984615 4.8375,24.6307692 4.8375,23.4369231 L4.8375,23.4369231 Z M8.30625,23.4369231 C8.30625,24.0153846 8.4,24.6 8.5875,25.1907692 C8.775,25.8307692 9.096875,26.3815385 9.553125,26.8430769 C10.009375,27.3046154 10.51875,27.5353846 11.08125,27.5353846 C11.68125,27.5353846 12.20625,27.2953846 12.65625,26.8153846 C13.44375,25.9169231 13.8375,24.7907692 13.8375,23.4369231 C13.8375,22.8707692 13.75625,22.2923077 13.59375,21.7015385 C13.40625,21.0615385 13.084375,20.5107692 12.628125,20.0492308 C12.171875,19.5876923 11.65625,19.3569231 11.08125,19.3569231 C10.48125,19.3569231 9.95625,19.6030769 9.50625,20.0953846 C8.70625,20.9446154 8.30625,22.0584615 8.30625,23.4369231 L8.30625,23.4369231 Z M22.1625,23.4369231 C22.1625,24.0153846 22.25625,24.6 22.44375,25.1907692 C22.63125,25.8307692 22.95,26.3815385 23.4,26.8430769 C23.85,27.3046154 24.35625,27.5353846 24.91875,27.5353846 C25.53125,27.5353846 26.0625,27.2953846 26.5125,26.8153846 C27.3,25.9169231 27.69375,24.7907692 27.69375,23.4369231 C27.69375,22.9076923 27.60625,22.3292308 27.43125,21.7015385 C27.24375,21.0615385 26.921875,20.5107692 26.465625,20.0492308 C26.009375,19.5876923 25.49375,19.3569231 24.91875,19.3569231 C24.31875,19.3569231 23.80625,19.6030769 23.38125,20.0953846 C22.56875,20.9446154 22.1625,22.0584615 22.1625,23.4369231 L22.1625,23.4369231 Z"></path>
    </g>
  </symbol>

  <symbol id="icon--search" viewBox="0 0 24 24">
    <g id="search" stroke-width="2" fill="none">
      <ellipse cx="14.3913043" cy="8.66666667" rx="6.60869565" ry="6.66666667"></ellipse>
      <path d="M9.84782609,14.0833333 L2.41304348,21.5833333" stroke-linecap="round"></path>
    </g>
  </symbol>
</svg>
